<svg width="20" height="20" viewBox="0 0 20 20" fill="none" xmlns="http://www.w3.org/2000/svg">
<path d="M10 0C15.523 0 20 4.477 20 10C20 15.523 15.523 20 10 20C4.477 20 0 15.523 0 10C0 4.477 4.477 0 10 0ZM6.823 13.343C6.428 12.866 5.937 12.696 5.344 12.834L5.194 12.875L4.604 13.891C4.49273 14.0721 4.45587 14.2893 4.50115 14.497C4.54643 14.7048 4.67033 14.8869 4.8469 15.0053C5.02347 15.1237 5.23901 15.1692 5.44837 15.1322C5.65772 15.0953 5.84465 14.9787 5.97 14.807L6.032 14.714L6.822 13.343H6.823ZM11.21 6.66C10.722 7.064 10.23 8.257 10.92 9.447L13.96 14.713C14.0653 14.8919 14.2342 15.0245 14.433 15.0842C14.6318 15.144 14.8458 15.1265 15.0322 15.0353C15.2187 14.9441 15.3639 14.7859 15.4387 14.5923C15.5136 14.3986 15.5126 14.1839 15.436 13.991L15.387 13.891L14.585 12.499H15.775C15.8831 12.4993 15.9902 12.4781 16.0901 12.4369C16.19 12.3956 16.2808 12.335 16.3572 12.2585C16.4336 12.182 16.4941 12.0911 16.5353 11.9912C16.5764 11.8912 16.5974 11.7841 16.597 11.676C16.5975 11.4755 16.5245 11.2817 16.3919 11.1314C16.2592 10.981 16.076 10.8845 15.877 10.86L15.774 10.854H13.634L11.44 7.057L11.21 6.661V6.66ZM11.488 3.616C11.3153 3.51681 11.1126 3.48343 10.9172 3.52203C10.7218 3.56062 10.547 3.66859 10.425 3.826L10.363 3.918L9.996 4.551L9.637 3.918C9.53173 3.7391 9.36282 3.60652 9.16403 3.54677C8.96524 3.48702 8.75122 3.50449 8.56476 3.5957C8.3783 3.68691 8.23313 3.84514 8.15827 4.03874C8.08342 4.23235 8.08439 4.44708 8.161 4.64L8.21 4.74L9.048 6.197L6.363 10.85H4.266C4.15798 10.8497 4.05097 10.8708 3.95112 10.912C3.85127 10.9532 3.76055 11.0138 3.68417 11.0902C3.60779 11.1666 3.54725 11.2573 3.50603 11.3571C3.46482 11.457 3.44374 11.564 3.444 11.672C3.444 12.093 3.756 12.438 4.163 12.489L4.266 12.495H11.746C12.086 11.855 11.686 10.946 10.936 10.857L10.815 10.85H8.262L11.79 4.74C11.899 4.5509 11.9284 4.32625 11.8718 4.11546C11.8151 3.90467 11.6771 3.72501 11.488 3.616Z" fill="white"/>
</svg>
